<?xml version="1.0" encoding="UTF-8"?>
<svg width="220px" height="220px" viewBox="0 0 220 220" version="1.1" xmlns="http://www.w3.org/2000/svg" xmlns:xlink="http://www.w3.org/1999/xlink">
    <title>Group 2 Copy</title>
    <g id="IPO" stroke="none" stroke-width="1" fill="none" fill-rule="evenodd">
        <g id="IPO-Polkadot" transform="translate(-73.000000, -495.000000)" fill="#000000" fill-rule="nonzero">
            <g id="Group-2-Copy" transform="translate(73.000000, 495.000000)">
                <circle id="Oval-Copy-1040" cx="26" cy="2" r="2"></circle>
                <circle id="Oval-Copy-1044" cx="26" cy="194" r="2"></circle>
                <circle id="Oval-Copy-1048" cx="218" cy="2" r="2"></circle>
                <circle id="Oval-Copy-1052" cx="218" cy="194" r="2"></circle>
                <circle id="Oval-Copy-1056" cx="26" cy="98" r="2"></circle>
                <circle id="Oval-Copy-1064" cx="218" cy="98" r="2"></circle>
                <circle id="Oval-Copy-1072" cx="122" cy="2" r="2"></circle>
                <circle id="Oval-Copy-1076" cx="122" cy="194" r="2"></circle>
                <circle id="Oval-Copy-1088" cx="122" cy="98" r="2"></circle>
                <circle id="Oval-Copy-1104" cx="26" cy="50" r="2"></circle>
                <circle id="Oval-Copy-1112" cx="218" cy="50" r="2"></circle>
                <circle id="Oval-Copy-1120" cx="26" cy="146" r="2"></circle>
                <circle id="Oval-Copy-1128" cx="218" cy="146" r="2"></circle>
                <circle id="Oval-Copy-1136" cx="122" cy="50" r="2"></circle>
                <circle id="Oval-Copy-1152" cx="122" cy="146" r="2"></circle>
                <circle id="Oval-Copy-1168" cx="74" cy="2" r="2"></circle>
                <circle id="Oval-Copy-1172" cx="74" cy="194" r="2"></circle>
                <circle id="Oval-Copy-1184" cx="74" cy="98" r="2"></circle>
                <circle id="Oval-Copy-1200" cx="170" cy="2" r="2"></circle>
                <circle id="Oval-Copy-1204" cx="170" cy="194" r="2"></circle>
                <circle id="Oval-Copy-1216" cx="170" cy="98" r="2"></circle>
                <circle id="Oval-Copy-1232" cx="74" cy="50" r="2"></circle>
                <circle id="Oval-Copy-1248" cx="74" cy="146" r="2"></circle>
                <circle id="Oval-Copy-1264" cx="170" cy="50" r="2"></circle>
                <circle id="Oval-Copy-1280" cx="170" cy="146" r="2"></circle>
                <circle id="Oval-Copy-1296" cx="26" cy="26" r="2"></circle>
                <circle id="Oval-Copy-1300" cx="26" cy="218" r="2"></circle>
                <circle id="Oval-Copy-1304" cx="218" cy="26" r="2"></circle>
                <circle id="Oval-Copy-1308" cx="218" cy="218" r="2"></circle>
                <circle id="Oval-Copy-1312" cx="26" cy="122" r="2"></circle>
                <circle id="Oval-Copy-1320" cx="218" cy="122" r="2"></circle>
                <circle id="Oval-Copy-1328" cx="122" cy="26" r="2"></circle>
                <circle id="Oval-Copy-1332" cx="122" cy="218" r="2"></circle>
                <circle id="Oval-Copy-1344" cx="122" cy="122" r="2"></circle>
                <circle id="Oval-Copy-1360" cx="26" cy="74" r="2"></circle>
                <circle id="Oval-Copy-1368" cx="218" cy="74" r="2"></circle>
                <circle id="Oval-Copy-1376" cx="26" cy="170" r="2"></circle>
                <circle id="Oval-Copy-1384" cx="218" cy="170" r="2"></circle>
                <circle id="Oval-Copy-1392" cx="122" cy="74" r="2"></circle>
                <circle id="Oval-Copy-1408" cx="122" cy="170" r="2"></circle>
                <circle id="Oval-Copy-1424" cx="74" cy="26" r="2"></circle>
                <circle id="Oval-Copy-1428" cx="74" cy="218" r="2"></circle>
                <circle id="Oval-Copy-1440" cx="74" cy="122" r="2"></circle>
                <circle id="Oval-Copy-1456" cx="170" cy="26" r="2"></circle>
                <circle id="Oval-Copy-1460" cx="170" cy="218" r="2"></circle>
                <circle id="Oval-Copy-1472" cx="170" cy="122" r="2"></circle>
                <circle id="Oval-Copy-1488" cx="74" cy="74" r="2"></circle>
                <circle id="Oval-Copy-1504" cx="74" cy="170" r="2"></circle>
                <circle id="Oval-Copy-1520" cx="170" cy="74" r="2"></circle>
                <circle id="Oval-Copy-1536" cx="170" cy="170" r="2"></circle>
                <circle id="Oval-Copy-1551" cx="2" cy="2" r="2"></circle>
                <circle id="Oval-Copy-1555" cx="2" cy="194" r="2"></circle>
                <circle id="Oval-Copy-1559" cx="194" cy="2" r="2"></circle>
                <circle id="Oval-Copy-1563" cx="194" cy="194" r="2"></circle>
                <circle id="Oval-Copy-1567" cx="2" cy="98" r="2"></circle>
                <circle id="Oval-Copy-1575" cx="194" cy="98" r="2"></circle>
                <circle id="Oval-Copy-1583" cx="98" cy="2" r="2"></circle>
                <circle id="Oval-Copy-1587" cx="98" cy="194" r="2"></circle>
                <circle id="Oval-Copy-1599" cx="98" cy="98" r="2"></circle>
                <circle id="Oval-Copy-1615" cx="2" cy="50" r="2"></circle>
                <circle id="Oval-Copy-1623" cx="194" cy="50" r="2"></circle>
                <circle id="Oval-Copy-1631" cx="2" cy="146" r="2"></circle>
                <circle id="Oval-Copy-1639" cx="194" cy="146" r="2"></circle>
                <circle id="Oval-Copy-1647" cx="98" cy="50" r="2"></circle>
                <circle id="Oval-Copy-1663" cx="98" cy="146" r="2"></circle>
                <circle id="Oval-Copy-1679" cx="50" cy="2" r="2"></circle>
                <circle id="Oval-Copy-1683" cx="50" cy="194" r="2"></circle>
                <circle id="Oval-Copy-1695" cx="50" cy="98" r="2"></circle>
                <circle id="Oval-Copy-1711" cx="146" cy="2" r="2"></circle>
                <circle id="Oval-Copy-1715" cx="146" cy="194" r="2"></circle>
                <circle id="Oval-Copy-1727" cx="146" cy="98" r="2"></circle>
                <circle id="Oval-Copy-1743" cx="50" cy="50" r="2"></circle>
                <circle id="Oval-Copy-1759" cx="50" cy="146" r="2"></circle>
                <circle id="Oval-Copy-1775" cx="146" cy="50" r="2"></circle>
                <circle id="Oval-Copy-1791" cx="146" cy="146" r="2"></circle>
                <circle id="Oval-Copy-1807" cx="2" cy="26" r="2"></circle>
                <circle id="Oval-Copy-1811" cx="2" cy="218" r="2"></circle>
                <circle id="Oval-Copy-1815" cx="194" cy="26" r="2"></circle>
                <circle id="Oval-Copy-1819" cx="194" cy="218" r="2"></circle>
                <circle id="Oval-Copy-1823" cx="2" cy="122" r="2"></circle>
                <circle id="Oval-Copy-1831" cx="194" cy="122" r="2"></circle>
                <circle id="Oval-Copy-1839" cx="98" cy="26" r="2"></circle>
                <circle id="Oval-Copy-1843" cx="98" cy="218" r="2"></circle>
                <circle id="Oval-Copy-1855" cx="98" cy="122" r="2"></circle>
                <circle id="Oval-Copy-1871" cx="2" cy="74" r="2"></circle>
                <circle id="Oval-Copy-1879" cx="194" cy="74" r="2"></circle>
                <circle id="Oval-Copy-1887" cx="2" cy="170" r="2"></circle>
                <circle id="Oval-Copy-1895" cx="194" cy="170" r="2"></circle>
                <circle id="Oval-Copy-1903" cx="98" cy="74" r="2"></circle>
                <circle id="Oval-Copy-1919" cx="98" cy="170" r="2"></circle>
                <circle id="Oval-Copy-1935" cx="50" cy="26" r="2"></circle>
                <circle id="Oval-Copy-1939" cx="50" cy="218" r="2"></circle>
                <circle id="Oval-Copy-1951" cx="50" cy="122" r="2"></circle>
                <circle id="Oval-Copy-1967" cx="146" cy="26" r="2"></circle>
                <circle id="Oval-Copy-1971" cx="146" cy="218" r="2"></circle>
                <circle id="Oval-Copy-1983" cx="146" cy="122" r="2"></circle>
                <circle id="Oval-Copy-1999" cx="50" cy="74" r="2"></circle>
                <circle id="Oval-Copy-2015" cx="50" cy="170" r="2"></circle>
                <circle id="Oval-Copy-2031" cx="146" cy="74" r="2"></circle>
                <circle id="Oval-Copy-2047" cx="146" cy="170" r="2"></circle>
            </g>
        </g>
    </g>
</svg>