<?xml version="1.0" encoding="UTF-8"?>
<svg width="67px" height="63px" viewBox="0 0 67 63" version="1.1" xmlns="http://www.w3.org/2000/svg" xmlns:xlink="http://www.w3.org/1999/xlink">
    <title>Group 11</title>
    <g id="IPO" stroke="none" stroke-width="1" fill="none" fill-rule="evenodd">
        <g id="IPO-Polkadot" transform="translate(-853.000000, -1522.000000)">
            <g id="Group-11" transform="translate(854.000000, 1522.000000)">
                <circle id="Oval" fill="#E6007A" cx="52" cy="14" r="14"></circle>
                <g id="Group-10" transform="translate(0.000000, 6.000000)" stroke="#333333" stroke-width="2">
                    <path d="M0,24.8827857 C0,31.5102027 5.372583,36.8827857 12,36.8827857 C18.627417,36.8827857 24,31.5102027 24,24.8827857 L12,4.94956789 L0,24.8827857 Z" id="Path" stroke-linejoin="round"></path>
                    <path d="M36,24.8827857 C36,31.5102027 41.372583,36.8827857 48,36.8827857 C54.627417,36.8827857 60,31.5102027 60,24.8827857 L48,4.94956789 L36,24.8827857 Z" id="Path-Copy" stroke-linejoin="round"></path>
                    <line x1="9.09494702e-13" y1="24.8827857" x2="17.9455659" y2="24.8827857" id="Path-53" stroke-linecap="round" stroke-linejoin="round"></line>
                    <line x1="36" y1="24.8827857" x2="53.9455659" y2="24.8827857" id="Path-53-Copy" stroke-linecap="round" stroke-linejoin="round"></line>
                    <line x1="12" y1="4.94956789" x2="48" y2="4.94956789" id="Path-54"></line>
                    <line x1="30.035498" y1="1.13686838e-13" x2="30.035498" y2="55.7672579" id="Path-55" stroke-linecap="round" stroke-linejoin="round"></line>
                    <line x1="12" y1="55.7672579" x2="48" y2="55.7672579" id="Path-56" stroke-linecap="round" stroke-linejoin="round"></line>
                </g>
            </g>
        </g>
    </g>
</svg>