<?xml version="1.0" encoding="UTF-8"?>
<svg width="69px" height="79px" viewBox="0 0 69 79" version="1.1" xmlns="http://www.w3.org/2000/svg" xmlns:xlink="http://www.w3.org/1999/xlink">
    <title>Group 16</title>
    <g id="PLO" stroke="none" stroke-width="1" fill="none" fill-rule="evenodd">
        <g id="PLO-Polkadot" transform="translate(-847.000000, -1086.000000)">
            <g id="Group-16" transform="translate(848.000000, 1087.000000)">
                <circle id="Oval" fill="#E6007A" cx="54" cy="61" r="14"></circle>
                <path d="M35.5081589,67 L35.5081589,67 L7,67 C3.13400675,67 0,63.8659932 0,60 L0,27 C0,23.1340068 3.13400675,20 7,20 L42,20 C45.8659932,20 49,23.1340068 49,27 L49,45.9455747 L49,45.9455747" id="Path" stroke="#000000" stroke-width="2"></path>
                <path d="M15,29 L15,9.24704839 C15.9542452,3.08234946 19.6209118,0 26,0 C32.3790882,0 36.0457548,3.08234946 37,9.24704839 L37,29" id="Path-4" stroke="#000000" stroke-width="2" stroke-linecap="round" stroke-linejoin="round"></path>
                <path d="M33,46 L57,46 L57,62.6853086 C54.8990868,66.880785 53.19384,69.7838743 51.8842598,71.3945764 C50.5746796,73.0052785 48.2799263,74.8737531 45,77 C41.1872257,74.1727623 38.7585401,72.1235968 37.7139431,70.8525036 C36.6693461,69.5814103 35.0980317,66.859012 33,62.6853086 L33,46 Z" id="Path-5" stroke="#000000" stroke-width="2" stroke-linejoin="round"></path>
                <polyline id="Path-6" stroke="#000000" stroke-width="2" points="40 57.872793 44.3552309 62 51 55"></polyline>
            </g>
        </g>
    </g>
</svg>