<?xml version="1.0" encoding="UTF-8"?>
<svg width="74px" height="64px" viewBox="0 0 74 64" version="1.1" xmlns="http://www.w3.org/2000/svg" xmlns:xlink="http://www.w3.org/1999/xlink">
    <title>Group 15</title>
    <g id="IPO" stroke="none" stroke-width="1" fill="none" fill-rule="evenodd">
        <g id="IPO-Kusama" transform="translate(-845.000000, -1286.000000)">
            <g id="Group-15" transform="translate(845.000000, 1286.000000)">
                <circle id="Oval-Copy-3" fill="#E6007A" cx="60" cy="50" r="14"></circle>
                <rect id="Rectangle" stroke="#FFFFFF" stroke-width="2" x="1" y="1" width="18" height="18" rx="2"></rect>
                <rect id="Rectangle-Copy-4" stroke="#FFFFFF" stroke-width="2" x="1" y="41" width="18" height="18" rx="2"></rect>
                <rect id="Rectangle-Copy-3" stroke="#FFFFFF" stroke-width="2" x="41" y="1" width="18" height="18" rx="2"></rect>
                <rect id="Rectangle-Copy-5" stroke="#FFFFFF" stroke-width="2" x="41" y="41" width="18" height="18" rx="2"></rect>
                <polyline id="Path-6-Copy" stroke="#FFFFFF" stroke-width="2" points="44 49.872793 48.3552309 54 55 47"></polyline>
                <line x1="20" y1="9.5" x2="40" y2="9.5" id="Path-12" stroke="#FFFFFF" stroke-width="2"></line>
                <line x1="20" y1="49.5" x2="40" y2="49.5" id="Path-12-Copy-3" stroke="#FFFFFF" stroke-width="2"></line>
                <line x1="10.5" y1="20" x2="10.5" y2="40" id="Path-12-Copy" stroke="#FFFFFF" stroke-width="2"></line>
                <line x1="50.5" y1="20" x2="50.5" y2="40" id="Path-12-Copy-2" stroke="#FFFFFF" stroke-width="2"></line>
                <circle id="Oval" fill="#FFFFFF" cx="10" cy="10" r="3"></circle>
                <circle id="Oval-Copy-2" fill="#FFFFFF" cx="10" cy="50" r="3"></circle>
                <circle id="Oval-Copy" fill="#FFFFFF" cx="50" cy="10" r="3"></circle>
            </g>
        </g>
    </g>
</svg>