<?xml version="1.0" encoding="UTF-8"?>
<svg width="48px" height="47px" viewBox="0 0 48 47" version="1.1" xmlns="http://www.w3.org/2000/svg" xmlns:xlink="http://www.w3.org/1999/xlink">
    <title>Group 12</title>
    <g id="PLO" stroke="none" stroke-width="1" fill="none" fill-rule="evenodd">
        <g id="PLO-Polkadot" transform="translate(-792.000000, -1965.000000)">
            <g id="Group-12" transform="translate(792.000000, 1965.000000)">
                <rect id="Rectangle" fill="#E40D7B" x="20" y="19" width="8" height="8" rx="4"></rect>
                <rect id="Rectangle" stroke="#E40D7B" stroke-width="3" x="7.70709329" y="6.69767442" width="33.4883721" height="33.4883721" rx="4.46511628"></rect>
                <rect id="Rectangle" fill="#E40D7B" x="17.7536049" y="0" width="4.46511628" height="6.69767442" rx="2.23255814"></rect>
                <rect id="Rectangle-Copy-48" fill="#E40D7B" x="17.7536049" y="40.1860465" width="4.46511628" height="6.69767442" rx="2.23255814"></rect>
                <rect id="Rectangle-Copy-50" fill="#E40D7B" transform="translate(4.358256, 18.976744) rotate(-270.000000) translate(-4.358256, -18.976744) " x="2.12569794" y="15.627907" width="4.46511628" height="6.69767442" rx="2.23255814"></rect>
                <rect id="Rectangle-Copy-51" fill="#E40D7B" transform="translate(4.232558, 27.906977) rotate(-270.000000) translate(-4.232558, -27.906977) " x="2" y="24.5581395" width="4.46511628" height="6.69767442" rx="2.23255814"></rect>
                <rect id="Rectangle-Copy-52" fill="#E40D7B" transform="translate(44.544303, 27.906977) rotate(-270.000000) translate(-44.544303, -27.906977) " x="42.3117445" y="24.5581395" width="4.46511628" height="6.69767442" rx="2.23255814"></rect>
                <rect id="Rectangle-Copy-53" fill="#E40D7B" transform="translate(44.544303, 18.976744) rotate(-270.000000) translate(-44.544303, -18.976744) " x="42.3117445" y="15.627907" width="4.46511628" height="6.69767442" rx="2.23255814"></rect>
                <rect id="Rectangle-Copy-49" fill="#E40D7B" x="26.6838375" y="40.1860465" width="4.46511628" height="6.69767442" rx="2.23255814"></rect>
                <rect id="Rectangle-Copy-47" fill="#E40D7B" x="26.6838375" y="0" width="4.46511628" height="6.69767442" rx="2.23255814"></rect>
            </g>
        </g>
    </g>
</svg>