<?xml version="1.0" encoding="UTF-8"?>
<svg width="46px" height="46px" viewBox="0 0 46 46" version="1.1" xmlns="http://www.w3.org/2000/svg" xmlns:xlink="http://www.w3.org/1999/xlink">
    <title>Group 31</title>
    <g id="PLO" stroke="none" stroke-width="1" fill="none" fill-rule="evenodd">
        <g id="PLO-Polkadot" transform="translate(-363.000000, -1970.000000)">
            <g id="Group-31" transform="translate(366.000000, 1973.000000)">
                <g id="Group-14-Copy" transform="translate(24.444444, 24.444444)">
                    <rect id="Rectangle" fill="#E40D7B" x="4.96124038" y="4.96124038" width="4.96124038" height="4.96124038" rx="2.48062019"></rect>
                    <path d="M12.899225,-1.38888889 C13.8307596,-1.38888889 14.6741058,-1.01130991 15.2845684,-0.400847285 C15.8950311,0.209615336 16.27261,1.0529616 16.27261,1.98449615 L16.27261,1.98449615 L16.27261,7.44186058 C16.27261,9.88040471 15.2841947,12.0880921 13.6861434,13.6861434 C12.0880921,15.2841947 9.88040471,16.27261 7.44186058,16.27261 L7.44186058,16.27261 L1.98449615,16.27261 C1.0529616,16.27261 0.209615336,15.8950311 -0.400847285,15.2845684 C-1.01130991,14.6741058 -1.38888889,13.8307596 -1.38888889,12.899225 L-1.38888889,12.899225 L-1.38888889,1.98449615 C-1.38888889,1.0529616 -1.01130991,0.209615336 -0.400847285,-0.400847285 C0.209615336,-1.01130991 1.0529616,-1.38888889 1.98449615,-1.38888889 L1.98449615,-1.38888889 Z" id="Rectangle" stroke="#E40D7B" stroke-width="2.77777778"></path>
                </g>
                <g id="Group-30-Copy" transform="translate(24.444444, 0.000000)">
                    <rect id="Rectangle" fill="#E40D7B" x="4.96124038" y="4.96124038" width="4.96124038" height="4.96124038" rx="2.48062019"></rect>
                    <path d="M16.27261,-1.38888889 L16.27261,12.899225 C16.27261,13.8307596 15.8950311,14.6741058 15.2845684,15.2845684 C14.6741058,15.8950311 13.8307596,16.27261 12.899225,16.27261 L12.899225,16.27261 L1.98449615,16.27261 C1.0529616,16.27261 0.209615336,15.8950311 -0.400847285,15.2845684 C-1.01130991,14.6741058 -1.38888889,13.8307596 -1.38888889,12.899225 L-1.38888889,12.899225 L-1.38888889,1.98449615 C-1.38888889,1.0529616 -1.01130991,0.209615336 -0.400847285,-0.400847285 C0.209615336,-1.01130991 1.0529616,-1.38888889 1.98449615,-1.38888889 L1.98449615,-1.38888889 L16.27261,-1.38888889 Z" id="Rectangle" stroke="#E40D7B" stroke-width="2.77777778"></path>
                </g>
                <g id="Group-26-Copy" transform="translate(0.000000, 24.444444)">
                    <rect id="Rectangle" fill="#E40D7B" x="4.96124038" y="4.96124038" width="4.96124038" height="4.96124038" rx="2.48062019"></rect>
                    <path d="M12.899225,-1.38888889 C13.8307596,-1.38888889 14.6741058,-1.01130991 15.2845684,-0.400847285 C15.8950311,0.209615336 16.27261,1.0529616 16.27261,1.98449615 L16.27261,1.98449615 L16.27261,12.899225 C16.27261,13.8307596 15.8950311,14.6741058 15.2845684,15.2845684 C14.6741058,15.8950311 13.8307596,16.27261 12.899225,16.27261 L12.899225,16.27261 L-1.38888889,16.27261 L-1.38888889,1.98449615 C-1.38888889,1.0529616 -1.01130991,0.209615336 -0.400847285,-0.400847285 C0.209615336,-1.01130991 1.0529616,-1.38888889 1.98449615,-1.38888889 L1.98449615,-1.38888889 Z" id="Rectangle" stroke="#E40D7B" stroke-width="2.77777778"></path>
                </g>
                <g id="Group-29-Copy">
                    <rect id="Rectangle" fill="#E40D7B" x="4.96124038" y="4.96124038" width="4.96124038" height="4.96124038" rx="2.48062019"></rect>
                    <path d="M12.899225,-1.38888889 C13.8307596,-1.38888889 14.6741058,-1.01130991 15.2845684,-0.400847285 C15.8950311,0.209615336 16.27261,1.0529616 16.27261,1.98449615 L16.27261,1.98449615 L16.27261,12.899225 C16.27261,13.8307596 15.8950311,14.6741058 15.2845684,15.2845684 C14.6741058,15.8950311 13.8307596,16.27261 12.899225,16.27261 L12.899225,16.27261 L1.98449615,16.27261 C1.0529616,16.27261 0.209615336,15.8950311 -0.400847285,15.2845684 C-1.01130991,14.6741058 -1.38888889,13.8307596 -1.38888889,12.899225 L-1.38888889,12.899225 L-1.38888889,7.44186058 C-1.38888889,5.00331645 -0.400473587,2.79562908 1.19757775,1.19757775 C2.79562908,-0.400473587 5.00331645,-1.38888889 7.44186058,-1.38888889 L7.44186058,-1.38888889 Z" id="Rectangle" stroke="#E40D7B" stroke-width="2.77777778"></path>
                </g>
            </g>
        </g>
    </g>
</svg>