<?xml version="1.0" encoding="UTF-8"?>
<svg width="45px" height="44px" viewBox="0 0 45 44" version="1.1" xmlns="http://www.w3.org/2000/svg" xmlns:xlink="http://www.w3.org/1999/xlink">
    <title>Group 14</title>
    <g id="IPO" stroke="none" stroke-width="1" fill="none" fill-rule="evenodd">
        <g id="IPO-Kusama" transform="translate(-792.000000, -2150.000000)">
            <g id="Group-14" transform="translate(792.000000, 2150.000000)">
                <rect id="Rectangle" fill="#E40D7B" x="26.8837209" y="26" width="4.96" height="4.96" rx="2.48"></rect>
                <rect id="Rectangle" stroke="#E40D7B" stroke-width="2.78" x="6.88372093" y="6" width="19" height="19" rx="3.1751938"></rect>
                <rect id="Rectangle-Copy-9" stroke="#E40D7B" stroke-width="2.78" x="19.8837209" y="19" width="19" height="19" rx="3.1751938"></rect>
                <rect id="Rectangle-Copy-48" fill="#E40D7B" x="23.8837209" y="37" width="4.46511628" height="6.69767442" rx="2.23255814"></rect>
                <rect id="Rectangle-Copy-62" fill="#E40D7B" x="10.8837209" y="0" width="4.46511628" height="6.69767442" rx="2.23255814"></rect>
                <rect id="Rectangle-Copy-50" fill="#E40D7B" transform="translate(41.358256, 25.232558) rotate(-270.000000) translate(-41.358256, -25.232558) " x="39.1256979" y="21.8837209" width="4.46511628" height="6.69767442" rx="2.23255814"></rect>
                <rect id="Rectangle-Copy-64" fill="#E40D7B" transform="translate(4.358256, 12.232558) rotate(-270.000000) translate(-4.358256, -12.232558) " x="2.12569794" y="8.88372093" width="4.46511628" height="6.69767442" rx="2.23255814"></rect>
                <rect id="Rectangle-Copy-51" fill="#E40D7B" transform="translate(41.232558, 31.790698) rotate(-270.000000) translate(-41.232558, -31.790698) " x="39" y="28.4418605" width="4.46511628" height="6.69767442" rx="2.23255814"></rect>
                <rect id="Rectangle-Copy-65" fill="#E40D7B" transform="translate(4.232558, 18.790698) rotate(-270.000000) translate(-4.232558, -18.790698) " x="2" y="15.4418605" width="4.46511628" height="6.69767442" rx="2.23255814"></rect>
                <rect id="Rectangle-Copy-49" fill="#E40D7B" x="30.8837209" y="37" width="4.46511628" height="6.69767442" rx="2.23255814"></rect>
                <rect id="Rectangle-Copy-63" fill="#E40D7B" x="17.8837209" y="0" width="4.46511628" height="6.69767442" rx="2.23255814"></rect>
            </g>
        </g>
    </g>
</svg>